<svg version="1.2" baseProfile="tiny-ps" xmlns="http://www.w3.org/2000/svg" viewBox="0 0 24 32" width="24" height="32">
	<title>welcome book</title>
	<style>
		tspan { white-space:pre }
		.shp0 { fill: #a5a5a5 } 
	</style>
	<g id="welcome book">
		<g id="padlock">
			<g id="Group 27">
				<path id="Path 42" fill-rule="evenodd" class="shp0" d="M23.42 15.83L23.42 26.73C23.42 29.52 21.15 31.8 18.35 31.8L5.07 31.8C2.28 31.8 0 29.52 0 26.73L0 15.83C0 14.9 0.76 14.14 1.69 14.14L19.52 14.14L19.52 10.06C19.52 5.75 16.01 2.25 11.71 2.25C7.4 2.25 3.9 5.76 3.9 10.06C3.9 10.55 3.51 10.94 3.02 10.94C2.53 10.94 2.15 10.55 2.15 10.06C2.15 4.79 6.44 0.5 11.71 0.5C16.99 0.5 21.27 4.79 21.27 10.06L21.27 14.14L21.73 14.14C22.66 14.14 23.42 14.9 23.42 15.83ZM21.67 26.73L21.67 15.89L1.76 15.89L1.76 26.73C1.76 28.56 3.25 30.05 5.08 30.05L18.35 30.05C20.19 30.05 21.67 28.56 21.67 26.73Z" />
				<path id="Path 43" fill-rule="evenodd" class="shp0" d="M8.44 23.1C8.44 21.3 9.91 19.83 11.71 19.83C13.52 19.83 14.99 21.29 14.99 23.1C14.99 24.9 13.52 26.37 11.71 26.37C9.91 26.37 8.44 24.9 8.44 23.1ZM10.19 23.1C10.19 23.94 10.87 24.62 11.71 24.62C12.56 24.62 13.24 23.93 13.24 23.09C13.24 22.26 12.56 21.57 11.71 21.57C10.87 21.57 10.19 22.26 10.19 23.1Z" />
			</g>
		</g>
	</g>
</svg>