<svg version="1.2" baseProfile="tiny-ps" xmlns="http://www.w3.org/2000/svg" viewBox="0 0 31 23" width="31" height="23">
	<title>welcome book</title>
	<style>
		tspan { white-space:pre }
		.shp0 { fill: #d6d6d6 } 
	</style>
	<g id="welcome book">
		<g id="eye">
			<g id="Group 30">
				<path id="Path 50" class="shp0" d="M28.04 11.22C24.2 15.95 20.25 18.6 16.31 19.09C15.78 19.15 15.41 19.63 15.48 20.16C15.54 20.64 15.95 21 16.42 21C16.46 21 16.5 21 16.54 20.99C21.17 20.41 25.71 17.33 30.03 11.81C30.05 11.79 30.05 11.75 30.07 11.72C30.1 11.68 30.12 11.64 30.14 11.59C30.17 11.53 30.19 11.46 30.2 11.39C30.21 11.33 30.22 11.28 30.22 11.22C30.22 11.16 30.21 11.1 30.2 11.05C30.19 10.98 30.17 10.91 30.14 10.84C30.12 10.8 30.1 10.76 30.07 10.72C30.05 10.69 30.05 10.65 30.03 10.62C28.34 8.47 26.61 6.68 24.87 5.27C24.46 4.94 23.86 5.01 23.53 5.42C23.19 5.83 23.26 6.43 23.67 6.76C25.13 7.94 26.6 9.45 28.04 11.22Z" />
				<path id="Path 51" fill-rule="evenodd" class="shp0" d="M0.02 11.3C0.01 11.28 0 11.24 0 11.22C0 11.2 0.01 11.17 0.01 11.15C0.02 11.08 0.04 11.01 0.06 10.94C0.07 10.89 0.09 10.84 0.11 10.8C0.13 10.77 0.13 10.73 0.15 10.7C0.24 10.56 2.36 7.21 5.99 4.55C10.65 1.13 15.64 0.45 20.46 2.55L21.32 1C21.58 0.54 22.17 0.37 22.63 0.63C23.09 0.89 23.26 1.47 23 1.93L11.66 22.23C11.49 22.55 11.16 22.73 10.82 22.73C10.67 22.73 10.51 22.69 10.36 22.6C9.9 22.35 9.73 21.76 9.99 21.3L10.54 20.32C5.22 18.46 1.28 13.65 0.26 11.85C0.12 11.69 0.04 11.5 0.02 11.3ZM15.11 4.3C11.82 4.3 9.14 6.98 9.14 10.27C9.14 12.79 10.73 15.01 13.02 15.87L18.78 5.56C17.73 4.74 16.46 4.3 15.11 4.3ZM9.66 4.59C5.76 6.49 3.04 9.93 2.12 11.22C3.17 12.69 6.63 17.06 11.49 18.61L12.08 17.56C9.19 16.35 7.22 13.49 7.22 10.27C7.22 8.04 8.16 6.02 9.66 4.59Z" />
			</g>
		</g>
	</g>
</svg>